<svg height="1000" width="1000" xmlns="http://www.w3.org/2000/svg" xmlns:svg="http://www.w3.org/2000/svg" xmlns:xlink="http://www.w3.org/1999/xlink">
	<defs id="defs">
		<g id="C8207">
			<rect fill="#333333" height="156" stroke="#000000" stroke-width="2" width="175" x="0" y="0" />
			<g>
				<rect fill="#cccccc" height="10" width="175" x="0" y="34" />
				<rect fill="#000000" height="3" width="175" x="0" y="37.5" />
			</g>
			<g>
				<rect fill="#cccccc" height="10" width="175" x="0" y="112" />
				<rect fill="#000000" height="3" width="175" x="0" y="115.5" />
			</g>
		</g>
		<g id="C8200">
			<rect fill="#333333" height="156" stroke="#000000" stroke-width="2" width="87.5" x="0" y="0" />
			<g>
				<rect fill="#cccccc" height="10" width="87.5" x="0" y="34" />
				<rect fill="#000000" height="3" width="87.5" x="0" y="37.5" />
			</g>
			<g>
				<rect fill="#cccccc" height="10" width="87.5" x="0" y="112" />
				<rect fill="#000000" height="3" width="87.5" x="0" y="115.5" />
			</g>
		</g>
		<g id="C7018">
			<rect fill="#333333" height="156" stroke="#000000" stroke-width="2" width="175" x="0" y="0" />
			<g>
				<rect fill="#cccccc" height="10" width="175" x="0" y="34" />
				<rect fill="#000000" height="3" width="175" x="0" y="37.5" />
			</g>
			<g>
				<rect fill="#cccccc" height="10" width="175" x="0" y="112" />
				<rect fill="#000000" height="3" width="175" x="0" y="115.5" />
			</g>
		</g>
		<g id="C8435">
			<rect fill="#333333" height="156" stroke="#000000" stroke-width="2" width="350" x="0" y="0" />
			<g>
				<rect fill="#cccccc" height="10" width="350" x="0" y="34" />
				<rect fill="#000000" height="3" width="350" x="0" y="37.5" />
			</g>
			<g>
				<rect fill="#cccccc" height="10" width="350" x="0" y="112" />
				<rect fill="#000000" height="3" width="350" x="0" y="115.5" />
			</g>
		</g>
		<g id="C8205">
			<rect fill="#333333" height="156" stroke="#000000" stroke-width="2" width="350" x="0" y="0" />
			<g>
				<rect fill="#cccccc" height="10" width="350" x="0" y="34" />
				<rect fill="#000000" height="3" width="350" x="0" y="37.5" />
			</g>
			<g>
				<rect fill="#cccccc" height="10" width="350" x="0" y="112" />
				<rect fill="#000000" height="3" width="350" x="0" y="115.5" />
			</g>
		</g>
		<g id="C8236">
			<rect fill="#333333" height="156" stroke="#000000" stroke-width="2" width="78" x="0" y="0" />
			<g>
				<rect fill="#cccccc" height="10" width="78" x="0" y="34" />
				<rect fill="#000000" height="3" width="78" x="0" y="37.5" />
			</g>
			<g>
				<rect fill="#cccccc" height="10" width="78" x="0" y="112" />
				<rect fill="#000000" height="3" width="78" x="0" y="115.5" />
			</g>
		</g>
		<g id="ctest">
			<!--
				Outer radius = 370, width = 156
				Inner radius = 214
				Angle = 45˚
				Outer lane radius = 370-39 = 331
				Inner lane radius = 331-78 = 253
			-->
			<!--
				Need to edge these in a bit due to stroke around track
				Calcs are currently:
				x = radius * sin(θ)
				y = radius * cos(θ)

				l -w * sin(θ) w * cos(θ)
				Example θ=22.5˚, = π/8 radians
			-->
			<path
				d="M 0 0
				   a 370 370 0 0 1 141.593 28.165
				   l -59.699 144.125
				   A 214 214 0 0 0 0 156
				   Z
				   "
				stroke="#000000"
				fill="#333333"
				stroke-width="2"
			/>
			<path
				d="M 0 34
				   a 336 336 0 0 1 128.582 25.5765
				   l -3.827 9.239
				   A 326 326 0 0 0 0 44
				   Z
				   "
				fill="#cccccc"
			/>
			<path
				d="M 0 37.5
				   a 332.5 332.5 0 0 1 127.242 25.31
				   l -1.148 2.7716
				   A 329.5 329.5 0 0 0 0 40.5
				   Z
				   "
				fill="#000000"
			/>
			<path
				d="M 0 112
				   a 258 258 0 0 1 98.732 19.639
				   l -3.827 9.239
				   A 248 248 0 0 0 0 122
				   Z
				   "
				fill="#cccccc"
			/>
			<path
				d="M 0 115.5
				   a 254.5 254.5 0 0 1 97.393 19.373
				   l -1.148 2.7716
				   A 251.5 251.5 0 0 0 0 118.5
				   Z
				   "
				fill="#000000"
			/>
		</g>
	</defs>
	<use x="0" xlink:href="#ctest" y="0" />
</svg>
